<mxfile host="app.diagrams.net" modified="2022-05-27T09:36:25.460Z" agent="5.0 (Macintosh; Intel Mac OS X 10_15_7) AppleWebKit/537.36 (KHTML, like Gecko) Chrome/101.0.0.0 Safari/537.36" etag="Xf8KHTWAve4uAk385gl3" version="18.1.1" type="github">
  <diagram id="iryZJKMmHRh9ckvreK3M" name="Page-1">
    <mxGraphModel dx="1056" dy="1854" grid="1" gridSize="10" guides="1" tooltips="1" connect="1" arrows="1" fold="1" page="1" pageScale="1" pageWidth="827" pageHeight="1169" math="0" shadow="0">
      <root>
        <mxCell id="0" />
        <mxCell id="1" parent="0" />
        <mxCell id="uAFPjLMtLkPOJIP_Cxoe-147" value="二级索引" style="rounded=1;whiteSpace=wrap;html=1;verticalAlign=top;fontSize=20;fontStyle=1" vertex="1" parent="1">
          <mxGeometry x="1420" y="-480" width="1260" height="630" as="geometry" />
        </mxCell>
        <mxCell id="uAFPjLMtLkPOJIP_Cxoe-146" value="主键索引" style="rounded=1;whiteSpace=wrap;html=1;verticalAlign=top;fontSize=20;fontStyle=1" vertex="1" parent="1">
          <mxGeometry x="100" y="-480" width="1260" height="630" as="geometry" />
        </mxCell>
        <mxCell id="uAFPjLMtLkPOJIP_Cxoe-1" value="1" style="rounded=0;whiteSpace=wrap;html=1;fontSize=16;fillColor=#ffcd28;gradientColor=#ffa500;strokeColor=#d79b00;" vertex="1" parent="1">
          <mxGeometry x="200" y="-50" width="80" height="40" as="geometry" />
        </mxCell>
        <mxCell id="uAFPjLMtLkPOJIP_Cxoe-2" value="0001" style="rounded=0;whiteSpace=wrap;html=1;fontSize=16;fillColor=#d5e8d4;gradientColor=#97d077;strokeColor=#82b366;" vertex="1" parent="1">
          <mxGeometry x="280" y="-50" width="80" height="40" as="geometry" />
        </mxCell>
        <mxCell id="uAFPjLMtLkPOJIP_Cxoe-3" value="apple" style="rounded=0;whiteSpace=wrap;html=1;fontSize=16;fillColor=#d5e8d4;gradientColor=#97d077;strokeColor=#82b366;" vertex="1" parent="1">
          <mxGeometry x="360" y="-50" width="80" height="40" as="geometry" />
        </mxCell>
        <mxCell id="uAFPjLMtLkPOJIP_Cxoe-4" value="6.00" style="rounded=0;whiteSpace=wrap;html=1;fontSize=16;fillColor=#d5e8d4;gradientColor=#97d077;strokeColor=#82b366;" vertex="1" parent="1">
          <mxGeometry x="440" y="-50" width="80" height="40" as="geometry" />
        </mxCell>
        <mxCell id="uAFPjLMtLkPOJIP_Cxoe-5" value="2" style="rounded=0;whiteSpace=wrap;html=1;fontSize=16;fillColor=#ffcd28;gradientColor=#ffa500;strokeColor=#d79b00;" vertex="1" parent="1">
          <mxGeometry x="200" y="-10" width="80" height="40" as="geometry" />
        </mxCell>
        <mxCell id="uAFPjLMtLkPOJIP_Cxoe-6" value="0002" style="rounded=0;whiteSpace=wrap;html=1;fontSize=16;fillColor=#d5e8d4;gradientColor=#97d077;strokeColor=#82b366;" vertex="1" parent="1">
          <mxGeometry x="280" y="-10" width="80" height="40" as="geometry" />
        </mxCell>
        <mxCell id="uAFPjLMtLkPOJIP_Cxoe-7" value="banana" style="rounded=0;whiteSpace=wrap;html=1;fontSize=16;fillColor=#d5e8d4;gradientColor=#97d077;strokeColor=#82b366;" vertex="1" parent="1">
          <mxGeometry x="360" y="-10" width="80" height="40" as="geometry" />
        </mxCell>
        <mxCell id="uAFPjLMtLkPOJIP_Cxoe-8" value="2.00" style="rounded=0;whiteSpace=wrap;html=1;fontSize=16;fillColor=#d5e8d4;gradientColor=#97d077;strokeColor=#82b366;" vertex="1" parent="1">
          <mxGeometry x="440" y="-10" width="80" height="40" as="geometry" />
        </mxCell>
        <mxCell id="uAFPjLMtLkPOJIP_Cxoe-9" value="1" style="rounded=0;whiteSpace=wrap;html=1;fontSize=16;fillColor=#ffcd28;gradientColor=#ffa500;strokeColor=#d79b00;" vertex="1" parent="1">
          <mxGeometry x="300" y="-210" width="80" height="40" as="geometry" />
        </mxCell>
        <mxCell id="uAFPjLMtLkPOJIP_Cxoe-10" value="4" style="rounded=0;whiteSpace=wrap;html=1;fontSize=16;fillColor=#ffcd28;gradientColor=#ffa500;strokeColor=#d79b00;" vertex="1" parent="1">
          <mxGeometry x="450" y="-210" width="84" height="40" as="geometry" />
        </mxCell>
        <mxCell id="uAFPjLMtLkPOJIP_Cxoe-11" value="7" style="rounded=0;whiteSpace=wrap;html=1;fontSize=16;fillColor=#ffcd28;gradientColor=#ffa500;strokeColor=#d79b00;" vertex="1" parent="1">
          <mxGeometry x="610" y="-210" width="80" height="40" as="geometry" />
        </mxCell>
        <mxCell id="uAFPjLMtLkPOJIP_Cxoe-12" style="rounded=0;orthogonalLoop=1;jettySize=auto;html=1;entryX=0;entryY=0.5;entryDx=0;entryDy=0;fontSize=16;exitX=0.5;exitY=1;exitDx=0;exitDy=0;edgeStyle=orthogonalEdgeStyle;" edge="1" parent="1" source="uAFPjLMtLkPOJIP_Cxoe-13" target="uAFPjLMtLkPOJIP_Cxoe-17">
          <mxGeometry relative="1" as="geometry">
            <Array as="points">
              <mxPoint x="240" y="90" />
              <mxPoint x="560" y="90" />
              <mxPoint x="560" y="-30" />
            </Array>
          </mxGeometry>
        </mxCell>
        <mxCell id="uAFPjLMtLkPOJIP_Cxoe-13" value="3" style="rounded=0;whiteSpace=wrap;html=1;fontSize=16;fillColor=#ffcd28;gradientColor=#ffa500;strokeColor=#d79b00;" vertex="1" parent="1">
          <mxGeometry x="200" y="30" width="80" height="40" as="geometry" />
        </mxCell>
        <mxCell id="uAFPjLMtLkPOJIP_Cxoe-14" value="0003" style="rounded=0;whiteSpace=wrap;html=1;fontSize=16;fillColor=#d5e8d4;gradientColor=#97d077;strokeColor=#82b366;" vertex="1" parent="1">
          <mxGeometry x="280" y="30" width="80" height="40" as="geometry" />
        </mxCell>
        <mxCell id="uAFPjLMtLkPOJIP_Cxoe-15" value="orange" style="rounded=0;whiteSpace=wrap;html=1;fontSize=16;fillColor=#d5e8d4;gradientColor=#97d077;strokeColor=#82b366;" vertex="1" parent="1">
          <mxGeometry x="360" y="30" width="80" height="40" as="geometry" />
        </mxCell>
        <mxCell id="uAFPjLMtLkPOJIP_Cxoe-16" value="3.00" style="rounded=0;whiteSpace=wrap;html=1;fontSize=16;fillColor=#d5e8d4;gradientColor=#97d077;strokeColor=#82b366;" vertex="1" parent="1">
          <mxGeometry x="440" y="30" width="80" height="40" as="geometry" />
        </mxCell>
        <mxCell id="uAFPjLMtLkPOJIP_Cxoe-17" value="4" style="rounded=0;whiteSpace=wrap;html=1;fontSize=16;fillColor=#ffcd28;gradientColor=#ffa500;strokeColor=#d79b00;" vertex="1" parent="1">
          <mxGeometry x="600" y="-50" width="80" height="40" as="geometry" />
        </mxCell>
        <mxCell id="uAFPjLMtLkPOJIP_Cxoe-18" value="..." style="rounded=0;whiteSpace=wrap;html=1;fontSize=16;fillColor=#d5e8d4;gradientColor=#97d077;strokeColor=#82b366;" vertex="1" parent="1">
          <mxGeometry x="680" y="-50" width="80" height="40" as="geometry" />
        </mxCell>
        <mxCell id="uAFPjLMtLkPOJIP_Cxoe-19" value="..." style="rounded=0;whiteSpace=wrap;html=1;fontSize=16;fillColor=#d5e8d4;gradientColor=#97d077;strokeColor=#82b366;" vertex="1" parent="1">
          <mxGeometry x="760" y="-50" width="80" height="40" as="geometry" />
        </mxCell>
        <mxCell id="uAFPjLMtLkPOJIP_Cxoe-20" value="..." style="rounded=0;whiteSpace=wrap;html=1;fontSize=16;fillColor=#d5e8d4;gradientColor=#97d077;strokeColor=#82b366;" vertex="1" parent="1">
          <mxGeometry x="840" y="-50" width="80" height="40" as="geometry" />
        </mxCell>
        <mxCell id="uAFPjLMtLkPOJIP_Cxoe-21" value="5" style="rounded=0;whiteSpace=wrap;html=1;fontSize=16;fillColor=#ffcd28;gradientColor=#ffa500;strokeColor=#d79b00;" vertex="1" parent="1">
          <mxGeometry x="600" y="-10" width="80" height="40" as="geometry" />
        </mxCell>
        <mxCell id="uAFPjLMtLkPOJIP_Cxoe-22" value="..." style="rounded=0;whiteSpace=wrap;html=1;fontSize=16;fillColor=#d5e8d4;gradientColor=#97d077;strokeColor=#82b366;" vertex="1" parent="1">
          <mxGeometry x="680" y="-10" width="80" height="40" as="geometry" />
        </mxCell>
        <mxCell id="uAFPjLMtLkPOJIP_Cxoe-23" value="..." style="rounded=0;whiteSpace=wrap;html=1;fontSize=16;fillColor=#d5e8d4;gradientColor=#97d077;strokeColor=#82b366;" vertex="1" parent="1">
          <mxGeometry x="760" y="-10" width="80" height="40" as="geometry" />
        </mxCell>
        <mxCell id="uAFPjLMtLkPOJIP_Cxoe-24" value="..." style="rounded=0;whiteSpace=wrap;html=1;fontSize=16;fillColor=#d5e8d4;gradientColor=#97d077;strokeColor=#82b366;" vertex="1" parent="1">
          <mxGeometry x="840" y="-10" width="80" height="40" as="geometry" />
        </mxCell>
        <mxCell id="uAFPjLMtLkPOJIP_Cxoe-25" style="edgeStyle=orthogonalEdgeStyle;rounded=0;orthogonalLoop=1;jettySize=auto;html=1;entryX=0;entryY=0.5;entryDx=0;entryDy=0;fontSize=16;" edge="1" parent="1" source="uAFPjLMtLkPOJIP_Cxoe-26" target="uAFPjLMtLkPOJIP_Cxoe-30">
          <mxGeometry relative="1" as="geometry">
            <Array as="points">
              <mxPoint x="640" y="90" />
              <mxPoint x="970" y="90" />
              <mxPoint x="970" y="-30" />
            </Array>
          </mxGeometry>
        </mxCell>
        <mxCell id="uAFPjLMtLkPOJIP_Cxoe-26" value="6" style="rounded=0;whiteSpace=wrap;html=1;fontSize=16;fillColor=#ffcd28;gradientColor=#ffa500;strokeColor=#d79b00;" vertex="1" parent="1">
          <mxGeometry x="600" y="30" width="80" height="40" as="geometry" />
        </mxCell>
        <mxCell id="uAFPjLMtLkPOJIP_Cxoe-27" value="..." style="rounded=0;whiteSpace=wrap;html=1;fontSize=16;fillColor=#d5e8d4;gradientColor=#97d077;strokeColor=#82b366;" vertex="1" parent="1">
          <mxGeometry x="680" y="30" width="80" height="40" as="geometry" />
        </mxCell>
        <mxCell id="uAFPjLMtLkPOJIP_Cxoe-28" value="..." style="rounded=0;whiteSpace=wrap;html=1;fontSize=16;fillColor=#d5e8d4;gradientColor=#97d077;strokeColor=#82b366;" vertex="1" parent="1">
          <mxGeometry x="760" y="30" width="80" height="40" as="geometry" />
        </mxCell>
        <mxCell id="uAFPjLMtLkPOJIP_Cxoe-29" value="..." style="rounded=0;whiteSpace=wrap;html=1;fontSize=16;fillColor=#d5e8d4;gradientColor=#97d077;strokeColor=#82b366;" vertex="1" parent="1">
          <mxGeometry x="840" y="30" width="80" height="40" as="geometry" />
        </mxCell>
        <mxCell id="uAFPjLMtLkPOJIP_Cxoe-30" value="7" style="rounded=0;whiteSpace=wrap;html=1;fontSize=16;fillColor=#ffcd28;gradientColor=#ffa500;strokeColor=#d79b00;" vertex="1" parent="1">
          <mxGeometry x="1000" y="-50" width="80" height="40" as="geometry" />
        </mxCell>
        <mxCell id="uAFPjLMtLkPOJIP_Cxoe-31" value="..." style="rounded=0;whiteSpace=wrap;html=1;fontSize=16;fillColor=#d5e8d4;gradientColor=#97d077;strokeColor=#82b366;" vertex="1" parent="1">
          <mxGeometry x="1080" y="-50" width="80" height="40" as="geometry" />
        </mxCell>
        <mxCell id="uAFPjLMtLkPOJIP_Cxoe-32" value="..." style="rounded=0;whiteSpace=wrap;html=1;fontSize=16;fillColor=#d5e8d4;gradientColor=#97d077;strokeColor=#82b366;" vertex="1" parent="1">
          <mxGeometry x="1160" y="-50" width="80" height="40" as="geometry" />
        </mxCell>
        <mxCell id="uAFPjLMtLkPOJIP_Cxoe-33" value="..." style="rounded=0;whiteSpace=wrap;html=1;fontSize=16;fillColor=#d5e8d4;gradientColor=#97d077;strokeColor=#82b366;" vertex="1" parent="1">
          <mxGeometry x="1240" y="-50" width="80" height="40" as="geometry" />
        </mxCell>
        <mxCell id="uAFPjLMtLkPOJIP_Cxoe-34" value="8" style="rounded=0;whiteSpace=wrap;html=1;fontSize=16;fillColor=#ffcd28;gradientColor=#ffa500;strokeColor=#d79b00;" vertex="1" parent="1">
          <mxGeometry x="1000" y="-10" width="80" height="40" as="geometry" />
        </mxCell>
        <mxCell id="uAFPjLMtLkPOJIP_Cxoe-35" value="..." style="rounded=0;whiteSpace=wrap;html=1;fontSize=16;fillColor=#d5e8d4;gradientColor=#97d077;strokeColor=#82b366;" vertex="1" parent="1">
          <mxGeometry x="1080" y="-10" width="80" height="40" as="geometry" />
        </mxCell>
        <mxCell id="uAFPjLMtLkPOJIP_Cxoe-36" value="..." style="rounded=0;whiteSpace=wrap;html=1;fontSize=16;fillColor=#d5e8d4;gradientColor=#97d077;strokeColor=#82b366;" vertex="1" parent="1">
          <mxGeometry x="1160" y="-10" width="80" height="40" as="geometry" />
        </mxCell>
        <mxCell id="uAFPjLMtLkPOJIP_Cxoe-37" value="..." style="rounded=0;whiteSpace=wrap;html=1;fontSize=16;fillColor=#d5e8d4;gradientColor=#97d077;strokeColor=#82b366;" vertex="1" parent="1">
          <mxGeometry x="1240" y="-10" width="80" height="40" as="geometry" />
        </mxCell>
        <mxCell id="uAFPjLMtLkPOJIP_Cxoe-38" value="9" style="rounded=0;whiteSpace=wrap;html=1;fontSize=16;fillColor=#ffcd28;gradientColor=#ffa500;strokeColor=#d79b00;" vertex="1" parent="1">
          <mxGeometry x="1000" y="30" width="80" height="40" as="geometry" />
        </mxCell>
        <mxCell id="uAFPjLMtLkPOJIP_Cxoe-39" value="..." style="rounded=0;whiteSpace=wrap;html=1;fontSize=16;fillColor=#d5e8d4;gradientColor=#97d077;strokeColor=#82b366;" vertex="1" parent="1">
          <mxGeometry x="1080" y="30" width="80" height="40" as="geometry" />
        </mxCell>
        <mxCell id="uAFPjLMtLkPOJIP_Cxoe-40" value="..." style="rounded=0;whiteSpace=wrap;html=1;fontSize=16;fillColor=#d5e8d4;gradientColor=#97d077;strokeColor=#82b366;" vertex="1" parent="1">
          <mxGeometry x="1160" y="30" width="80" height="40" as="geometry" />
        </mxCell>
        <mxCell id="uAFPjLMtLkPOJIP_Cxoe-41" value="..." style="rounded=0;whiteSpace=wrap;html=1;fontSize=16;fillColor=#d5e8d4;gradientColor=#97d077;strokeColor=#82b366;" vertex="1" parent="1">
          <mxGeometry x="1240" y="30" width="80" height="40" as="geometry" />
        </mxCell>
        <mxCell id="uAFPjLMtLkPOJIP_Cxoe-42" style="edgeStyle=none;rounded=0;orthogonalLoop=1;jettySize=auto;html=1;entryX=0.5;entryY=0;entryDx=0;entryDy=0;fontSize=16;" edge="1" parent="1" source="uAFPjLMtLkPOJIP_Cxoe-43" target="uAFPjLMtLkPOJIP_Cxoe-1">
          <mxGeometry relative="1" as="geometry" />
        </mxCell>
        <mxCell id="uAFPjLMtLkPOJIP_Cxoe-43" value="" style="rounded=0;whiteSpace=wrap;html=1;fontSize=16;" vertex="1" parent="1">
          <mxGeometry x="380" y="-210" width="80" height="40" as="geometry" />
        </mxCell>
        <mxCell id="uAFPjLMtLkPOJIP_Cxoe-44" style="edgeStyle=none;rounded=0;orthogonalLoop=1;jettySize=auto;html=1;entryX=0.5;entryY=0;entryDx=0;entryDy=0;fontSize=16;" edge="1" parent="1" source="uAFPjLMtLkPOJIP_Cxoe-45" target="uAFPjLMtLkPOJIP_Cxoe-17">
          <mxGeometry relative="1" as="geometry" />
        </mxCell>
        <mxCell id="uAFPjLMtLkPOJIP_Cxoe-45" value="" style="rounded=0;whiteSpace=wrap;html=1;fontSize=16;" vertex="1" parent="1">
          <mxGeometry x="534" y="-210" width="80" height="40" as="geometry" />
        </mxCell>
        <mxCell id="uAFPjLMtLkPOJIP_Cxoe-46" style="edgeStyle=none;rounded=0;orthogonalLoop=1;jettySize=auto;html=1;entryX=0.5;entryY=0;entryDx=0;entryDy=0;fontSize=16;exitX=0.5;exitY=1;exitDx=0;exitDy=0;" edge="1" parent="1" source="uAFPjLMtLkPOJIP_Cxoe-47" target="uAFPjLMtLkPOJIP_Cxoe-30">
          <mxGeometry relative="1" as="geometry" />
        </mxCell>
        <mxCell id="uAFPjLMtLkPOJIP_Cxoe-47" value="" style="rounded=0;whiteSpace=wrap;html=1;fontSize=16;" vertex="1" parent="1">
          <mxGeometry x="690" y="-210" width="80" height="40" as="geometry" />
        </mxCell>
        <mxCell id="uAFPjLMtLkPOJIP_Cxoe-48" value="....." style="rounded=0;whiteSpace=wrap;html=1;fontSize=16;" vertex="1" parent="1">
          <mxGeometry x="890" y="-210" width="160" height="40" as="geometry" />
        </mxCell>
        <mxCell id="uAFPjLMtLkPOJIP_Cxoe-49" value="....." style="rounded=0;whiteSpace=wrap;html=1;fontSize=16;" vertex="1" parent="1">
          <mxGeometry x="1180" y="-210" width="160" height="40" as="geometry" />
        </mxCell>
        <mxCell id="uAFPjLMtLkPOJIP_Cxoe-50" value="1" style="rounded=0;whiteSpace=wrap;html=1;fontSize=16;fillColor=#ffcd28;gradientColor=#ffa500;strokeColor=#d79b00;" vertex="1" parent="1">
          <mxGeometry x="534" y="-400" width="80" height="40" as="geometry" />
        </mxCell>
        <mxCell id="uAFPjLMtLkPOJIP_Cxoe-51" value="10" style="rounded=0;whiteSpace=wrap;html=1;fontSize=16;fillColor=#ffcd28;gradientColor=#ffa500;strokeColor=#d79b00;" vertex="1" parent="1">
          <mxGeometry x="684" y="-400" width="84" height="40" as="geometry" />
        </mxCell>
        <mxCell id="uAFPjLMtLkPOJIP_Cxoe-52" value="20" style="rounded=0;whiteSpace=wrap;html=1;fontSize=16;fillColor=#ffcd28;gradientColor=#ffa500;strokeColor=#d79b00;" vertex="1" parent="1">
          <mxGeometry x="844" y="-400" width="80" height="40" as="geometry" />
        </mxCell>
        <mxCell id="uAFPjLMtLkPOJIP_Cxoe-53" style="rounded=0;orthogonalLoop=1;jettySize=auto;html=1;entryX=0.5;entryY=0;entryDx=0;entryDy=0;fontSize=16;exitX=0.5;exitY=1;exitDx=0;exitDy=0;" edge="1" parent="1" source="uAFPjLMtLkPOJIP_Cxoe-54" target="uAFPjLMtLkPOJIP_Cxoe-43">
          <mxGeometry relative="1" as="geometry" />
        </mxCell>
        <mxCell id="uAFPjLMtLkPOJIP_Cxoe-54" value="" style="rounded=0;whiteSpace=wrap;html=1;fontSize=16;" vertex="1" parent="1">
          <mxGeometry x="614" y="-400" width="80" height="40" as="geometry" />
        </mxCell>
        <mxCell id="uAFPjLMtLkPOJIP_Cxoe-55" style="edgeStyle=none;rounded=0;orthogonalLoop=1;jettySize=auto;html=1;entryX=0.5;entryY=0;entryDx=0;entryDy=0;fontSize=16;" edge="1" parent="1" source="uAFPjLMtLkPOJIP_Cxoe-56" target="uAFPjLMtLkPOJIP_Cxoe-48">
          <mxGeometry relative="1" as="geometry" />
        </mxCell>
        <mxCell id="uAFPjLMtLkPOJIP_Cxoe-56" value="" style="rounded=0;whiteSpace=wrap;html=1;fontSize=16;" vertex="1" parent="1">
          <mxGeometry x="768" y="-400" width="80" height="40" as="geometry" />
        </mxCell>
        <mxCell id="uAFPjLMtLkPOJIP_Cxoe-57" style="edgeStyle=none;rounded=0;orthogonalLoop=1;jettySize=auto;html=1;entryX=0.5;entryY=0;entryDx=0;entryDy=0;fontSize=16;" edge="1" parent="1" source="uAFPjLMtLkPOJIP_Cxoe-58" target="uAFPjLMtLkPOJIP_Cxoe-49">
          <mxGeometry relative="1" as="geometry" />
        </mxCell>
        <mxCell id="uAFPjLMtLkPOJIP_Cxoe-58" value="" style="rounded=0;whiteSpace=wrap;html=1;fontSize=16;" vertex="1" parent="1">
          <mxGeometry x="924" y="-400" width="80" height="40" as="geometry" />
        </mxCell>
        <mxCell id="uAFPjLMtLkPOJIP_Cxoe-59" value="根节点" style="text;html=1;align=center;verticalAlign=middle;resizable=0;points=[];autosize=1;strokeColor=#36393d;fillColor=#ffff88;fontSize=16;" vertex="1" parent="1">
          <mxGeometry x="460" y="-390" width="60" height="20" as="geometry" />
        </mxCell>
        <mxCell id="uAFPjLMtLkPOJIP_Cxoe-60" value="叶子节点" style="text;html=1;align=center;verticalAlign=middle;resizable=0;points=[];autosize=1;strokeColor=#36393d;fillColor=#ffff88;fontSize=16;" vertex="1" parent="1">
          <mxGeometry x="110" y="-40" width="80" height="20" as="geometry" />
        </mxCell>
        <mxCell id="uAFPjLMtLkPOJIP_Cxoe-103" value="0001" style="rounded=0;whiteSpace=wrap;html=1;fontSize=16;fillColor=#ffcd28;gradientColor=#ffa500;strokeColor=#d79b00;" vertex="1" parent="1">
          <mxGeometry x="1490" y="-50" width="80" height="40" as="geometry" />
        </mxCell>
        <mxCell id="uAFPjLMtLkPOJIP_Cxoe-104" value="1" style="rounded=0;whiteSpace=wrap;html=1;fontSize=16;fillColor=#d5e8d4;gradientColor=#97d077;strokeColor=#82b366;" vertex="1" parent="1">
          <mxGeometry x="1570" y="-50" width="80" height="40" as="geometry" />
        </mxCell>
        <mxCell id="uAFPjLMtLkPOJIP_Cxoe-145" value="回表" style="edgeStyle=orthogonalEdgeStyle;rounded=0;orthogonalLoop=1;jettySize=auto;html=1;curved=1;entryX=0.5;entryY=0;entryDx=0;entryDy=0;fontSize=17;fontStyle=1;fontColor=#FF0000;dashed=1;fillColor=#e51400;strokeColor=#B20000;strokeWidth=3;" edge="1" parent="1" source="uAFPjLMtLkPOJIP_Cxoe-105" target="uAFPjLMtLkPOJIP_Cxoe-146">
          <mxGeometry x="-0.554" relative="1" as="geometry">
            <mxPoint x="770" y="-450" as="targetPoint" />
            <Array as="points">
              <mxPoint x="1420" y="10" />
              <mxPoint x="1420" y="-550" />
              <mxPoint x="730" y="-550" />
            </Array>
            <mxPoint as="offset" />
          </mxGeometry>
        </mxCell>
        <mxCell id="uAFPjLMtLkPOJIP_Cxoe-105" value="0002" style="rounded=0;whiteSpace=wrap;html=1;fontSize=16;fillColor=#ffcd28;gradientColor=#ffa500;strokeColor=#d79b00;" vertex="1" parent="1">
          <mxGeometry x="1490" y="-10" width="80" height="40" as="geometry" />
        </mxCell>
        <mxCell id="uAFPjLMtLkPOJIP_Cxoe-106" value="2" style="rounded=0;whiteSpace=wrap;html=1;fontSize=16;fillColor=#d5e8d4;gradientColor=#97d077;strokeColor=#82b366;" vertex="1" parent="1">
          <mxGeometry x="1570" y="-10" width="80" height="40" as="geometry" />
        </mxCell>
        <mxCell id="uAFPjLMtLkPOJIP_Cxoe-107" value="0001" style="rounded=0;whiteSpace=wrap;html=1;fontSize=16;fillColor=#ffcd28;gradientColor=#ffa500;strokeColor=#d79b00;" vertex="1" parent="1">
          <mxGeometry x="1590" y="-210" width="80" height="40" as="geometry" />
        </mxCell>
        <mxCell id="uAFPjLMtLkPOJIP_Cxoe-108" value="0004" style="rounded=0;whiteSpace=wrap;html=1;fontSize=16;fillColor=#ffcd28;gradientColor=#ffa500;strokeColor=#d79b00;" vertex="1" parent="1">
          <mxGeometry x="1740" y="-210" width="84" height="40" as="geometry" />
        </mxCell>
        <mxCell id="uAFPjLMtLkPOJIP_Cxoe-109" value="0007" style="rounded=0;whiteSpace=wrap;html=1;fontSize=16;fillColor=#ffcd28;gradientColor=#ffa500;strokeColor=#d79b00;" vertex="1" parent="1">
          <mxGeometry x="1900" y="-210" width="80" height="40" as="geometry" />
        </mxCell>
        <mxCell id="uAFPjLMtLkPOJIP_Cxoe-110" style="rounded=0;orthogonalLoop=1;jettySize=auto;html=1;entryX=0;entryY=0.5;entryDx=0;entryDy=0;fontSize=16;exitX=0.5;exitY=1;exitDx=0;exitDy=0;edgeStyle=orthogonalEdgeStyle;" edge="1" parent="1" source="uAFPjLMtLkPOJIP_Cxoe-111" target="uAFPjLMtLkPOJIP_Cxoe-113">
          <mxGeometry relative="1" as="geometry">
            <Array as="points">
              <mxPoint x="1530" y="90" />
              <mxPoint x="1850" y="90" />
              <mxPoint x="1850" y="-30" />
            </Array>
          </mxGeometry>
        </mxCell>
        <mxCell id="uAFPjLMtLkPOJIP_Cxoe-111" value="0003" style="rounded=0;whiteSpace=wrap;html=1;fontSize=16;fillColor=#ffcd28;gradientColor=#ffa500;strokeColor=#d79b00;" vertex="1" parent="1">
          <mxGeometry x="1490" y="30" width="80" height="40" as="geometry" />
        </mxCell>
        <mxCell id="uAFPjLMtLkPOJIP_Cxoe-112" value="3" style="rounded=0;whiteSpace=wrap;html=1;fontSize=16;fillColor=#d5e8d4;gradientColor=#97d077;strokeColor=#82b366;" vertex="1" parent="1">
          <mxGeometry x="1570" y="30" width="80" height="40" as="geometry" />
        </mxCell>
        <mxCell id="uAFPjLMtLkPOJIP_Cxoe-113" value="0004" style="rounded=0;whiteSpace=wrap;html=1;fontSize=16;fillColor=#ffcd28;gradientColor=#ffa500;strokeColor=#d79b00;" vertex="1" parent="1">
          <mxGeometry x="1890" y="-50" width="80" height="40" as="geometry" />
        </mxCell>
        <mxCell id="uAFPjLMtLkPOJIP_Cxoe-114" value="4" style="rounded=0;whiteSpace=wrap;html=1;fontSize=16;fillColor=#d5e8d4;gradientColor=#97d077;strokeColor=#82b366;" vertex="1" parent="1">
          <mxGeometry x="1970" y="-50" width="80" height="40" as="geometry" />
        </mxCell>
        <mxCell id="uAFPjLMtLkPOJIP_Cxoe-115" value="0005" style="rounded=0;whiteSpace=wrap;html=1;fontSize=16;fillColor=#ffcd28;gradientColor=#ffa500;strokeColor=#d79b00;" vertex="1" parent="1">
          <mxGeometry x="1890" y="-10" width="80" height="40" as="geometry" />
        </mxCell>
        <mxCell id="uAFPjLMtLkPOJIP_Cxoe-116" value="5" style="rounded=0;whiteSpace=wrap;html=1;fontSize=16;fillColor=#d5e8d4;gradientColor=#97d077;strokeColor=#82b366;" vertex="1" parent="1">
          <mxGeometry x="1970" y="-10" width="80" height="40" as="geometry" />
        </mxCell>
        <mxCell id="uAFPjLMtLkPOJIP_Cxoe-117" style="edgeStyle=orthogonalEdgeStyle;rounded=0;orthogonalLoop=1;jettySize=auto;html=1;entryX=0;entryY=0.5;entryDx=0;entryDy=0;fontSize=16;" edge="1" parent="1" source="uAFPjLMtLkPOJIP_Cxoe-118" target="uAFPjLMtLkPOJIP_Cxoe-120">
          <mxGeometry relative="1" as="geometry">
            <Array as="points">
              <mxPoint x="1930" y="90" />
              <mxPoint x="2260" y="90" />
              <mxPoint x="2260" y="-30" />
            </Array>
          </mxGeometry>
        </mxCell>
        <mxCell id="uAFPjLMtLkPOJIP_Cxoe-118" value="0006" style="rounded=0;whiteSpace=wrap;html=1;fontSize=16;fillColor=#ffcd28;gradientColor=#ffa500;strokeColor=#d79b00;" vertex="1" parent="1">
          <mxGeometry x="1890" y="30" width="80" height="40" as="geometry" />
        </mxCell>
        <mxCell id="uAFPjLMtLkPOJIP_Cxoe-119" value="6" style="rounded=0;whiteSpace=wrap;html=1;fontSize=16;fillColor=#d5e8d4;gradientColor=#97d077;strokeColor=#82b366;" vertex="1" parent="1">
          <mxGeometry x="1970" y="30" width="80" height="40" as="geometry" />
        </mxCell>
        <mxCell id="uAFPjLMtLkPOJIP_Cxoe-120" value="0007" style="rounded=0;whiteSpace=wrap;html=1;fontSize=16;fillColor=#ffcd28;gradientColor=#ffa500;strokeColor=#d79b00;" vertex="1" parent="1">
          <mxGeometry x="2290" y="-50" width="80" height="40" as="geometry" />
        </mxCell>
        <mxCell id="uAFPjLMtLkPOJIP_Cxoe-121" value="7" style="rounded=0;whiteSpace=wrap;html=1;fontSize=16;fillColor=#d5e8d4;gradientColor=#97d077;strokeColor=#82b366;" vertex="1" parent="1">
          <mxGeometry x="2370" y="-50" width="80" height="40" as="geometry" />
        </mxCell>
        <mxCell id="uAFPjLMtLkPOJIP_Cxoe-122" value="0008" style="rounded=0;whiteSpace=wrap;html=1;fontSize=16;fillColor=#ffcd28;gradientColor=#ffa500;strokeColor=#d79b00;" vertex="1" parent="1">
          <mxGeometry x="2290" y="-10" width="80" height="40" as="geometry" />
        </mxCell>
        <mxCell id="uAFPjLMtLkPOJIP_Cxoe-123" value="8" style="rounded=0;whiteSpace=wrap;html=1;fontSize=16;fillColor=#d5e8d4;gradientColor=#97d077;strokeColor=#82b366;" vertex="1" parent="1">
          <mxGeometry x="2370" y="-10" width="80" height="40" as="geometry" />
        </mxCell>
        <mxCell id="uAFPjLMtLkPOJIP_Cxoe-124" value="0009" style="rounded=0;whiteSpace=wrap;html=1;fontSize=16;fillColor=#ffcd28;gradientColor=#ffa500;strokeColor=#d79b00;" vertex="1" parent="1">
          <mxGeometry x="2290" y="30" width="80" height="40" as="geometry" />
        </mxCell>
        <mxCell id="uAFPjLMtLkPOJIP_Cxoe-125" value="9" style="rounded=0;whiteSpace=wrap;html=1;fontSize=16;fillColor=#d5e8d4;gradientColor=#97d077;strokeColor=#82b366;" vertex="1" parent="1">
          <mxGeometry x="2370" y="30" width="80" height="40" as="geometry" />
        </mxCell>
        <mxCell id="uAFPjLMtLkPOJIP_Cxoe-126" style="edgeStyle=none;rounded=0;orthogonalLoop=1;jettySize=auto;html=1;entryX=0.5;entryY=0;entryDx=0;entryDy=0;fontSize=16;" edge="1" parent="1" source="uAFPjLMtLkPOJIP_Cxoe-127" target="uAFPjLMtLkPOJIP_Cxoe-103">
          <mxGeometry relative="1" as="geometry" />
        </mxCell>
        <mxCell id="uAFPjLMtLkPOJIP_Cxoe-127" value="" style="rounded=0;whiteSpace=wrap;html=1;fontSize=16;" vertex="1" parent="1">
          <mxGeometry x="1670" y="-210" width="80" height="40" as="geometry" />
        </mxCell>
        <mxCell id="uAFPjLMtLkPOJIP_Cxoe-128" style="edgeStyle=none;rounded=0;orthogonalLoop=1;jettySize=auto;html=1;entryX=0.5;entryY=0;entryDx=0;entryDy=0;fontSize=16;" edge="1" parent="1" source="uAFPjLMtLkPOJIP_Cxoe-129" target="uAFPjLMtLkPOJIP_Cxoe-113">
          <mxGeometry relative="1" as="geometry" />
        </mxCell>
        <mxCell id="uAFPjLMtLkPOJIP_Cxoe-129" value="" style="rounded=0;whiteSpace=wrap;html=1;fontSize=16;" vertex="1" parent="1">
          <mxGeometry x="1824" y="-210" width="80" height="40" as="geometry" />
        </mxCell>
        <mxCell id="uAFPjLMtLkPOJIP_Cxoe-130" style="edgeStyle=none;rounded=0;orthogonalLoop=1;jettySize=auto;html=1;entryX=0.5;entryY=0;entryDx=0;entryDy=0;fontSize=16;exitX=0.5;exitY=1;exitDx=0;exitDy=0;" edge="1" parent="1" source="uAFPjLMtLkPOJIP_Cxoe-131" target="uAFPjLMtLkPOJIP_Cxoe-120">
          <mxGeometry relative="1" as="geometry" />
        </mxCell>
        <mxCell id="uAFPjLMtLkPOJIP_Cxoe-131" value="" style="rounded=0;whiteSpace=wrap;html=1;fontSize=16;" vertex="1" parent="1">
          <mxGeometry x="1980" y="-210" width="80" height="40" as="geometry" />
        </mxCell>
        <mxCell id="uAFPjLMtLkPOJIP_Cxoe-132" value="....." style="rounded=0;whiteSpace=wrap;html=1;fontSize=16;" vertex="1" parent="1">
          <mxGeometry x="2180" y="-210" width="160" height="40" as="geometry" />
        </mxCell>
        <mxCell id="uAFPjLMtLkPOJIP_Cxoe-133" value="....." style="rounded=0;whiteSpace=wrap;html=1;fontSize=16;" vertex="1" parent="1">
          <mxGeometry x="2470" y="-210" width="160" height="40" as="geometry" />
        </mxCell>
        <mxCell id="uAFPjLMtLkPOJIP_Cxoe-134" value="0001" style="rounded=0;whiteSpace=wrap;html=1;fontSize=16;fillColor=#ffcd28;gradientColor=#ffa500;strokeColor=#d79b00;" vertex="1" parent="1">
          <mxGeometry x="1824" y="-400" width="80" height="40" as="geometry" />
        </mxCell>
        <mxCell id="uAFPjLMtLkPOJIP_Cxoe-135" value="0010" style="rounded=0;whiteSpace=wrap;html=1;fontSize=16;fillColor=#ffcd28;gradientColor=#ffa500;strokeColor=#d79b00;" vertex="1" parent="1">
          <mxGeometry x="1974" y="-400" width="84" height="40" as="geometry" />
        </mxCell>
        <mxCell id="uAFPjLMtLkPOJIP_Cxoe-136" value="0020" style="rounded=0;whiteSpace=wrap;html=1;fontSize=16;fillColor=#ffcd28;gradientColor=#ffa500;strokeColor=#d79b00;" vertex="1" parent="1">
          <mxGeometry x="2134" y="-400" width="80" height="40" as="geometry" />
        </mxCell>
        <mxCell id="uAFPjLMtLkPOJIP_Cxoe-137" style="rounded=0;orthogonalLoop=1;jettySize=auto;html=1;entryX=0.5;entryY=0;entryDx=0;entryDy=0;fontSize=16;exitX=0.5;exitY=1;exitDx=0;exitDy=0;" edge="1" parent="1" source="uAFPjLMtLkPOJIP_Cxoe-138" target="uAFPjLMtLkPOJIP_Cxoe-127">
          <mxGeometry relative="1" as="geometry" />
        </mxCell>
        <mxCell id="uAFPjLMtLkPOJIP_Cxoe-138" value="" style="rounded=0;whiteSpace=wrap;html=1;fontSize=16;" vertex="1" parent="1">
          <mxGeometry x="1904" y="-400" width="80" height="40" as="geometry" />
        </mxCell>
        <mxCell id="uAFPjLMtLkPOJIP_Cxoe-139" style="edgeStyle=none;rounded=0;orthogonalLoop=1;jettySize=auto;html=1;entryX=0.5;entryY=0;entryDx=0;entryDy=0;fontSize=16;" edge="1" parent="1" source="uAFPjLMtLkPOJIP_Cxoe-140" target="uAFPjLMtLkPOJIP_Cxoe-132">
          <mxGeometry relative="1" as="geometry" />
        </mxCell>
        <mxCell id="uAFPjLMtLkPOJIP_Cxoe-140" value="" style="rounded=0;whiteSpace=wrap;html=1;fontSize=16;" vertex="1" parent="1">
          <mxGeometry x="2058" y="-400" width="80" height="40" as="geometry" />
        </mxCell>
        <mxCell id="uAFPjLMtLkPOJIP_Cxoe-141" style="edgeStyle=none;rounded=0;orthogonalLoop=1;jettySize=auto;html=1;entryX=0.5;entryY=0;entryDx=0;entryDy=0;fontSize=16;" edge="1" parent="1" source="uAFPjLMtLkPOJIP_Cxoe-142" target="uAFPjLMtLkPOJIP_Cxoe-133">
          <mxGeometry relative="1" as="geometry" />
        </mxCell>
        <mxCell id="uAFPjLMtLkPOJIP_Cxoe-142" value="" style="rounded=0;whiteSpace=wrap;html=1;fontSize=16;" vertex="1" parent="1">
          <mxGeometry x="2214" y="-400" width="80" height="40" as="geometry" />
        </mxCell>
        <mxCell id="uAFPjLMtLkPOJIP_Cxoe-143" value="根节点" style="text;html=1;align=center;verticalAlign=middle;resizable=0;points=[];autosize=1;strokeColor=#36393d;fillColor=#ffff88;fontSize=16;" vertex="1" parent="1">
          <mxGeometry x="1750" y="-390" width="60" height="20" as="geometry" />
        </mxCell>
      </root>
    </mxGraphModel>
  </diagram>
</mxfile>
